# 3ds Max Wavefront OBJ Exporter v0.97b - (c)2007 guruware
# File Created: 19.02.2024 19:34:13

mtllib 1.mtl

#
# object Plane001
#

v  -11.8382 0.0000 -38.9762
v  -11.8382 0.0000 30.6789
v  -0.7825 0.0000 30.6789
v  -0.7825 0.0000 -38.9762
# 4 vertices

vn 0.0000 1.0000 -0.0000
# 1 vertex normals

vt 0.4486 0.9800 0.0000
vt 0.4486 0.0200 0.0000
vt 0.6010 0.0200 0.0000
vt 0.6010 0.9800 0.0000
# 4 texture coords

o Plane001
g Plane001
usemtl wire_228184153
s 1
f 1/1/1 2/2/1 3/3/1 4/4/1 
# 1 polygons

