# 3ds Max Wavefront OBJ Exporter v0.97b - (c)2007 guruware
# File Created: 19.02.2024 19:39:57

mtllib 2.mtl

#
# object Cylinder001
#

v  13.2987 57.5748 10.8286
v  11.7330 57.5748 1.9489
v  -5.0851 57.5748 8.0701
v  -4.5987 57.5748 10.8286
v  7.2246 57.5748 -5.8599
v  -6.4856 57.5748 5.6443
v  0.3174 57.5748 -11.6557
v  -8.6313 57.5748 3.8439
v  -8.1556 57.5748 -14.7396
v  -11.2635 57.5748 2.8858
v  -17.1724 57.5748 -14.7396
v  -14.0645 57.5748 2.8858
v  -25.6454 57.5748 -11.6557
v  -16.6967 57.5748 3.8439
v  -32.5526 57.5748 -5.8599
v  -18.8424 57.5748 5.6443
v  -37.0610 57.5748 1.9489
v  -20.2429 57.5748 8.0701
v  -38.6267 57.5748 10.8286
v  -20.7293 57.5748 10.8286
v  -37.0610 57.5748 19.7084
v  -20.2429 57.5748 13.5871
v  -32.5526 57.5748 27.5172
v  -18.8424 57.5748 16.0129
v  -25.6454 57.5748 33.3130
v  -16.6967 57.5748 17.8134
v  -17.1724 57.5748 36.3969
v  -14.0645 57.5748 18.7714
v  -8.1556 57.5748 36.3969
v  -11.2635 57.5748 18.7714
v  0.3173 57.5748 33.3130
v  -8.6313 57.5748 17.8134
v  7.2246 57.5748 27.5172
v  -6.4856 57.5748 16.0129
v  11.7330 57.5748 19.7084
v  -5.0851 57.5748 13.5872
# 36 vertices

vn -0.0000 1.0000 -0.0000
vn -0.0000 1.0000 0.0000
vn 0.0000 1.0000 0.0000
vn 0.0000 1.0000 -0.0000
# 4 vertex normals

vt 0.7515 0.7786 1.0000
vt 0.7514 0.8342 1.0000
vt 0.2514 0.8333 0.5000
vt 0.2515 0.7777 0.5000
vt 0.7513 0.8897 1.0000
vt 0.2513 0.8888 0.5000
vt 0.7512 0.9453 1.0000
vt 0.2512 0.9444 0.5000
vt 0.7511 1.0009 1.0000
vt 0.2511 1.0000 0.5000
vt 0.7529 0.0009 1.0000
vt 0.7528 0.0564 1.0000
vt 0.2528 0.0555 0.5000
vt 0.2529 -0.0000 0.5000
vt 0.7527 0.1120 1.0000
vt 0.2527 0.1111 0.5000
vt 0.7526 0.1675 1.0000
vt 0.2526 0.1666 0.5000
vt 0.7525 0.2231 1.0000
vt 0.2525 0.2222 0.5000
vt 0.7524 0.2786 1.0000
vt 0.2524 0.2777 0.5000
vt 0.7523 0.3342 1.0000
vt 0.2523 0.3333 0.5000
vt 0.7522 0.3897 1.0000
vt 0.2522 0.3888 0.5000
vt 0.7521 0.4453 1.0000
vt 0.2521 0.4444 0.5000
vt 0.7520 0.5009 1.0000
vt 0.2520 0.5000 0.5000
vt 0.7519 0.5564 1.0000
vt 0.2519 0.5555 0.5000
vt 0.7518 0.6120 1.0000
vt 0.2518 0.6111 0.5000
vt 0.7517 0.6675 1.0000
vt 0.2517 0.6666 0.5000
vt 0.7516 0.7231 1.0000
vt 0.2516 0.7222 0.5000
# 38 texture coords

o Cylinder001
g Cylinder001
usemtl wire_154185229
s 1
f 1/1/1 2/2/2 3/3/2 4/4/1 
f 2/2/2 5/5/2 6/6/2 3/3/2 
f 5/5/2 7/7/2 8/8/2 6/6/2 
f 7/7/2 9/9/2 10/10/2 8/8/2 
f 9/11/2 11/12/3 12/13/3 10/14/2 
f 11/12/3 13/15/3 14/16/3 12/13/3 
f 13/15/3 15/17/3 16/18/3 14/16/3 
f 15/17/3 17/19/3 18/20/3 16/18/3 
f 17/19/3 19/21/3 20/22/3 18/20/3 
f 19/21/3 21/23/4 22/24/4 20/22/3 
f 21/23/4 23/25/4 24/26/4 22/24/4 
f 23/25/4 25/27/4 26/28/4 24/26/4 
f 25/27/4 27/29/4 28/30/4 26/28/4 
f 27/29/4 29/31/1 30/32/1 28/30/4 
f 29/31/1 31/33/1 32/34/1 30/32/1 
f 31/33/1 33/35/1 34/36/1 32/34/1 
f 33/35/1 35/37/1 36/38/1 34/36/1 
f 35/37/1 1/1/1 4/4/1 36/38/1 
# 18 polygons

