# 3ds Max Wavefront OBJ Exporter v0.97b - (c)2007 guruware
# File Created: 21.02.2024 17:12:12

mtllib 4.mtl

#
# object Cylinder001
#

v  56.3109 76.9592 -4.4904
v  41.3015 76.9592 -1.5048
v  41.5955 76.9592 1.4807
v  56.8990 76.9592 1.4807
v  54.5692 76.9592 -10.2320
v  40.4306 76.9592 -4.3756
v  51.7408 76.9592 -15.5236
v  39.0164 76.9592 -7.0214
v  47.9344 76.9592 -20.1616
v  37.1132 76.9592 -9.3404
v  43.2963 76.9592 -23.9680
v  34.7942 76.9592 -11.2436
v  38.0048 76.9592 -26.7964
v  32.1484 76.9592 -12.6578
v  32.2632 76.9592 -28.5381
v  29.2776 76.9592 -13.5287
v  26.2920 76.9592 -29.1262
v  26.2920 76.9592 -13.8227
v  20.3209 76.9592 -28.5381
v  23.3065 76.9592 -13.5287
v  14.5793 76.9592 -26.7964
v  20.4357 76.9592 -12.6578
v  9.2877 76.9592 -23.9680
v  17.7899 76.9592 -11.2436
v  4.6497 76.9592 -20.1616
v  15.4709 76.9592 -9.3404
v  0.8433 76.9592 -15.5236
v  13.5677 76.9592 -7.0214
v  -1.9851 76.9592 -10.2320
v  12.1535 76.9592 -4.3756
v  -3.7268 76.9592 -4.4904
v  11.2826 76.9592 -1.5048
v  -4.3149 76.9592 1.4807
v  10.9886 76.9592 1.4807
v  -3.7268 76.9592 7.4519
v  11.2826 76.9592 4.4663
v  -1.9851 76.9592 13.1935
v  12.1535 76.9592 7.3371
v  0.8433 76.9592 18.4851
v  13.5677 76.9592 9.9829
v  4.6497 76.9592 23.1231
v  15.4709 76.9592 12.3019
v  9.2878 76.9592 26.9295
v  17.7899 76.9592 14.2051
v  14.5793 76.9592 29.7579
v  20.4357 76.9592 15.6193
v  20.3210 76.9592 31.4996
v  23.3065 76.9592 16.4902
v  26.2921 76.9592 32.0877
v  26.2921 76.9592 16.7842
v  32.2632 76.9592 31.4996
v  29.2776 76.9592 16.4901
v  38.0048 76.9592 29.7578
v  32.1484 76.9592 15.6193
v  43.2964 76.9592 26.9295
v  34.7942 76.9592 14.2051
v  47.9344 76.9592 23.1231
v  37.1132 76.9592 12.3019
v  51.7408 76.9592 18.4850
v  39.0164 76.9592 9.9829
v  54.5692 76.9592 13.1935
v  40.4306 76.9592 7.3371
v  56.3109 76.9592 7.4518
v  41.3015 76.9592 4.4663
# 64 vertices

vn 0.0000 1.0000 -0.0000
# 1 vertex normals

vt 0.9496 0.7783 -0.2500
vt 0.0479 0.7783 -0.2500
vt 0.0479 0.7537 -0.2500
vt 0.9496 0.7537 -0.2500
vt 0.9496 0.8042 -0.2500
vt 0.0479 0.8042 -0.2500
vt 0.9496 0.8308 -0.2500
vt 0.0479 0.8308 -0.2500
vt 0.9496 0.8584 -0.2500
vt 0.0479 0.8584 -0.2500
vt 0.9496 0.8865 -0.2500
vt 0.0479 0.8865 -0.2500
vt 0.9496 0.9151 -0.2500
vt 0.0479 0.9151 -0.2500
vt 0.9496 0.9441 -0.2500
vt 0.0479 0.9441 -0.2500
vt 0.9496 0.9701 0.2500
vt 0.0479 0.9701 -0.2500
vt 0.9496 0.0596 -0.2500
vt 0.0479 0.0596 -0.2500
vt 0.0479 0.0255 -0.2500
vt 0.9496 0.0255 0.2500
vt 0.9496 0.0949 -0.2500
vt 0.0479 0.0949 -0.2500
vt 0.9496 0.1265 -0.2500
vt 0.0479 0.1265 -0.2500
vt 0.9496 0.1574 -0.2500
vt 0.0479 0.1574 -0.2500
vt 0.9496 0.1885 -0.2500
vt 0.0479 0.1885 -0.2500
vt 0.9496 0.2241 -0.2500
vt 0.0479 0.2241 -0.2500
vt 0.9496 0.2553 -0.2500
vt 0.0479 0.2553 -0.2500
vt 0.9496 0.2859 -0.2500
vt 0.0479 0.2859 -0.2500
vt 0.9496 0.3168 -0.2500
vt 0.0479 0.3168 -0.2500
vt 0.9496 0.3486 -0.2500
vt 0.0479 0.3486 -0.2500
vt 0.9496 0.3791 -0.2500
vt 0.0479 0.3791 -0.2500
vt 0.9496 0.4112 -0.2500
vt 0.0479 0.4112 -0.2500
vt 0.9496 0.4427 -0.2500
vt 0.0479 0.4427 -0.2500
vt 0.9496 0.4736 -0.2500
vt 0.0479 0.4736 -0.2500
vt 0.9496 0.5036 -0.2500
vt 0.0479 0.5036 -0.2500
vt 0.9496 0.5336 -0.2500
vt 0.0479 0.5336 -0.2500
vt 0.9496 0.5632 -0.2500
vt 0.0479 0.5632 -0.2500
vt 0.9496 0.5915 -0.2500
vt 0.0479 0.5915 -0.2500
vt 0.9496 0.6193 -0.2500
vt 0.0479 0.6193 -0.2500
vt 0.9496 0.6474 -0.2500
vt 0.0479 0.6474 -0.2500
vt 0.9496 0.6741 -0.2500
vt 0.0479 0.6741 -0.2500
vt 0.9496 0.7034 -0.2500
vt 0.0479 0.7034 -0.2500
vt 0.9496 0.7294 -0.2500
vt 0.0479 0.7294 -0.2500
# 66 texture coords

o Cylinder001
g Cylinder001
usemtl wire_088199225
s 1
f 1/1/1 2/2/1 3/3/1 4/4/1 
f 5/5/1 6/6/1 2/2/1 1/1/1 
f 7/7/1 8/8/1 6/6/1 5/5/1 
f 9/9/1 10/10/1 8/8/1 7/7/1 
f 11/11/1 12/12/1 10/10/1 9/9/1 
f 13/13/1 14/14/1 12/12/1 11/11/1 
f 15/15/1 16/16/1 14/14/1 13/13/1 
f 17/17/1 18/18/1 16/16/1 15/15/1 
f 19/19/1 20/20/1 18/21/1 17/22/1 
f 21/23/1 22/24/1 20/20/1 19/19/1 
f 23/25/1 24/26/1 22/24/1 21/23/1 
f 25/27/1 26/28/1 24/26/1 23/25/1 
f 27/29/1 28/30/1 26/28/1 25/27/1 
f 29/31/1 30/32/1 28/30/1 27/29/1 
f 31/33/1 32/34/1 30/32/1 29/31/1 
f 33/35/1 34/36/1 32/34/1 31/33/1 
f 35/37/1 36/38/1 34/36/1 33/35/1 
f 37/39/1 38/40/1 36/38/1 35/37/1 
f 39/41/1 40/42/1 38/40/1 37/39/1 
f 41/43/1 42/44/1 40/42/1 39/41/1 
f 43/45/1 44/46/1 42/44/1 41/43/1 
f 45/47/1 46/48/1 44/46/1 43/45/1 
f 47/49/1 48/50/1 46/48/1 45/47/1 
f 49/51/1 50/52/1 48/50/1 47/49/1 
f 51/53/1 52/54/1 50/52/1 49/51/1 
f 53/55/1 54/56/1 52/54/1 51/53/1 
f 55/57/1 56/58/1 54/56/1 53/55/1 
f 57/59/1 58/60/1 56/58/1 55/57/1 
f 59/61/1 60/62/1 58/60/1 57/59/1 
f 61/63/1 62/64/1 60/62/1 59/61/1 
f 63/65/1 64/66/1 62/64/1 61/63/1 
f 4/4/1 3/3/1 64/66/1 63/65/1 
# 32 polygons

