# Blender 3.6.1 Release Candidate
# www.blender.org
mtllib untitled.mtl
o cube_bridge3
v 2.315772 0.691811 2.265646
v 2.315772 1.250611 2.265646
v 2.315772 0.691811 1.706846
v 2.315772 1.250611 1.706846
v -2.307029 0.691813 2.265646
v -2.307029 1.250612 2.265646
v -2.307029 0.691813 1.706846
v -2.307029 1.250612 1.706846
v 2.315772 0.691811 -1.707183
v 2.315772 1.250611 -1.707183
v 2.315772 0.691811 -2.265983
v 2.315772 1.250611 -2.265983
v -2.307029 0.691812 -1.707183
v -2.307029 1.250612 -1.707183
v -2.307029 0.691812 -2.265983
v -2.307029 1.250612 -2.265983
v 2.315770 -3.281019 -1.707183
v 2.315770 -2.722219 -1.707183
v 2.315770 -3.281019 -2.265983
v 2.315770 -2.722219 -2.265983
v -2.307029 -3.281018 -1.707183
v -2.307029 -2.722218 -1.707183
v -2.307029 -3.281018 -2.265983
v -2.307029 -2.722218 -2.265983
v 2.315770 -3.281018 2.265646
v 2.315770 -2.722218 2.265646
v 2.315770 -3.281018 1.706846
v 2.315770 -2.722218 1.706846
v -2.307029 -3.281018 2.265646
v -2.307029 -2.722217 2.265646
v -2.307029 -3.281018 1.706846
v -2.307029 -2.722217 1.706846
v 2.315772 0.691811 1.917754
v 2.315772 1.092150 1.917754
v 2.315772 0.691811 -1.918091
v 2.315772 1.092150 -1.918091
v -2.307029 0.691813 1.917754
v -2.307029 1.092151 1.917754
v -2.307029 0.691812 -1.918091
v -2.307029 1.092151 -1.918091
v -0.236476 1.099998 -2.014899
v -0.207213 1.069413 -2.128827
v -0.141307 1.002093 -2.156584
v -0.088417 0.948689 -2.077407
v -0.088349 0.949458 -1.950829
v -0.141164 1.003805 -1.872198
v -0.207096 1.070802 -1.900698
v -2.066864 -2.880460 -1.989598
v -2.037595 -2.911044 -2.103452
v -1.971721 -2.978364 -2.131283
v -1.918804 -3.031768 -2.052106
v -1.918737 -3.030999 -1.925503
v -1.971534 -2.976652 -1.846872
v -2.037452 -2.909680 -1.875398
v 1.826020 -3.040302 -1.991161
v 1.855309 -3.011082 -2.105387
v 1.921239 -2.944109 -2.134011
v 1.974160 -2.889787 -2.055455
v 1.974229 -2.889018 -1.928852
v 1.921388 -2.942398 -1.849601
v 1.855433 -3.009693 -1.877308
v -0.002427 0.941248 -2.014056
v 0.026851 0.970393 -2.128306
v 0.092751 1.037415 -2.156981
v 0.145708 1.091713 -2.078498
v 0.145764 1.092482 -1.951821
v 0.092961 1.039127 -1.872570
v 0.026999 0.971757 -1.900227
v -0.234387 1.124305 1.997408
v -0.205123 1.093672 1.883505
v -0.139216 1.026403 1.855723
v -0.086321 0.972997 1.934925
v -0.086259 0.973767 2.061553
v -0.139081 1.028114 2.140134
v -0.205012 1.095061 2.111633
v -2.064774 -2.856150 2.022733
v -2.035505 -2.886760 1.908805
v -1.969635 -2.954079 1.881049
v -1.916723 -3.007459 1.960225
v -1.916654 -3.006690 2.086853
v -1.969451 -2.952368 2.165460
v -2.035369 -2.885370 2.136934
v 1.828110 -3.015992 2.021171
v 1.857399 -2.986798 1.906846
v 1.923323 -2.919825 1.878271
v 1.976256 -2.865527 1.956778
v 1.976312 -2.864758 2.083430
v 1.923473 -2.918113 2.162731
v 1.857523 -2.985409 2.134950
v -0.000336 0.965508 1.998251
v 0.028940 0.994677 1.883976
v 0.094840 1.061700 1.855302
v 0.147793 1.115997 1.933833
v 0.147861 1.116767 2.060461
v 0.095044 1.063410 2.139737
v 0.029082 0.996066 2.112105
v -2.053520 -2.877730 2.081769
v -2.018005 -2.987640 2.082537
v -1.938141 -3.014801 2.082860
v -1.874051 -2.938801 2.082637
v -1.874020 -2.816835 2.081893
v -1.938074 -2.740734 2.081198
v -2.017956 -2.767895 2.081223
v -2.050420 -2.902784 -2.049030
v -2.014910 -3.012644 -2.048287
v -1.935040 -3.039830 -2.047939
v -1.870952 -2.963804 -2.048212
v -1.870920 -2.841790 -2.048956
v -1.934971 -2.765763 -2.049601
v -2.014849 -2.792850 -2.049626
v 1.933252 -2.878178 2.200037
v 1.953212 -2.988335 2.155290
v 1.998165 -3.016117 2.053466
v 2.034230 -2.940562 1.971288
v 2.034262 -2.818572 1.970569
v 1.998233 -2.742000 2.051804
v 1.953273 -2.768516 2.153950
v -1.989703 -2.902015 -1.928281
v -1.969755 -3.012198 -1.973029
v -1.924802 -3.040004 -2.074827
v -1.888730 -2.964474 -2.157080
v -1.888680 -2.842434 -2.157799
v -1.924678 -2.765887 -2.076490
v -1.969649 -2.792378 -1.974368
v 1.940047 -2.904620 -2.171913
v 1.960089 -3.014282 -2.125801
v 2.005141 -3.040823 -2.023730
v 2.041276 -2.964226 -1.942470
v 2.041307 -2.842261 -1.943214
v 2.005215 -2.766681 -2.025367
v 1.960151 -2.794438 -2.127141
v -1.978597 -2.878425 1.961491
v -1.958578 -2.988137 2.007503
v -1.913560 -3.014652 2.109649
v -1.877370 -2.938155 2.190860
v -1.877302 -2.816190 2.190115
v -1.913435 -2.740586 2.107987
v -1.958494 -2.768317 2.006164
v 1.888646 -2.878847 2.079238
v 1.924166 -2.988782 2.080007
v 2.004038 -3.015943 2.080330
v 2.068121 -2.939893 2.080107
v 2.068152 -2.817952 2.079362
v 2.004112 -2.741876 2.078668
v 1.924223 -2.769012 2.078668
v 1.891760 -2.903901 -2.051561
v 1.927261 -3.013786 -2.050817
v 2.007138 -3.040972 -2.050494
v 2.071214 -2.964896 -2.050767
v 2.071245 -2.842906 -2.051486
v 2.007207 -2.766905 -2.052156
v 1.927316 -2.793967 -2.052156
v -2.066864 -2.880460 -1.989598
v -2.066864 -2.880360 -1.989648
v -0.236476 1.100047 -2.014949
v -0.002427 0.941248 -2.014056
v -0.002445 0.941223 -2.014105
v 1.826020 -3.040302 -1.991211
v -2.064774 -2.856150 2.022733
v -2.064774 -2.856101 2.022684
v -0.234387 1.124355 1.997358
v -0.000336 0.965508 1.998251
v -0.000348 0.965508 1.998202
v 1.828110 -3.015992 2.021121
v -2.050420 -2.902784 -2.049030
v -2.050426 -2.902710 -2.049080
v -2.053538 -2.877730 2.081719
v -1.989703 -2.902015 -1.928281
v -1.989703 -2.901990 -1.928281
v 1.933252 -2.878154 2.199988
v -1.978597 -2.878425 1.961491
v -1.978597 -2.878425 1.961491
v 1.940047 -2.904670 -2.171863
v 1.891760 -2.903901 -2.051561
v 1.891740 -2.903802 -2.051610
v 1.888633 -2.878847 2.079189
v -0.207082 1.070827 -1.900797
v 1.855433 -3.009768 -1.877407
v -0.204999 1.095136 2.111633
v 1.857523 -2.985458 2.134950
v -2.017962 -2.767796 2.081148
v 1.953273 -2.768492 2.153975
v 1.960151 -2.794438 -2.127116
v 1.924192 -2.768938 2.078643
vn -0.0000 -0.0000 1.0000
vn -0.0000 1.0000 -0.0000
vn -0.0000 -0.0000 -1.0000
vn -0.0000 -1.0000 -0.0000
vn -0.8596 0.3932 -0.3265
vn -0.6362 0.2880 -0.7158
vn -0.6361 0.2880 -0.7158
vn 0.2380 -0.1155 -0.9644
vn 0.8485 -0.3925 -0.3549
vn 0.8486 -0.3925 -0.3548
vn 0.2380 -0.1156 -0.9644
vn 0.8490 -0.3882 0.3585
vn 0.8486 -0.3924 -0.3548
vn 0.2393 -0.1039 0.9654
vn 0.8490 -0.3881 0.3585
vn -0.7338 0.3411 0.5876
vn -0.6353 0.2966 0.7131
vn 0.2393 -0.1040 0.9654
vn -0.7337 0.3411 0.5876
vn -0.8591 0.3971 0.3229
vn -0.6353 0.2967 0.7131
vn -0.8597 -0.3967 -0.3217
vn -0.6365 -0.2964 -0.7121
vn 0.2379 0.1037 -0.9657
vn 0.8488 0.3877 -0.3596
vn 0.8487 0.3877 -0.3596
vn 0.8492 0.3920 0.3538
vn 0.2394 0.1155 0.9640
vn -0.6354 -0.2877 0.7166
vn -0.6354 -0.2876 0.7166
vn -0.8594 -0.3928 0.3274
vn -0.8594 -0.3928 0.3275
vn -0.8595 0.3932 -0.3265
vn 0.8490 -0.3881 0.3586
vn 0.8490 -0.3880 0.3586
vn 0.2392 -0.1038 0.9654
vn -0.6352 0.2967 0.7131
vn 0.2392 -0.1039 0.9654
vn -0.8591 0.3971 0.3228
vn -0.6352 0.2966 0.7131
vn -0.8592 0.3972 0.3225
vn -0.8598 -0.3967 -0.3215
vn 0.8492 0.3921 0.3537
vn 0.8492 0.3920 0.3537
vn -0.9515 -0.3075 0.0011
vn -0.7126 -0.7016 0.0037
vn -0.7125 -0.7016 0.0037
vn 0.2680 -0.9634 0.0060
vn 0.2680 -0.9634 0.0061
vn 0.9392 -0.3432 0.0028
vn 0.9393 -0.3431 0.0028
vn 0.9392 -0.3433 0.0028
vn 0.9394 0.3427 -0.0014
vn 0.2685 0.9633 -0.0056
vn -0.7121 0.7020 -0.0048
vn -0.8183 0.5748 -0.0041
vn -0.7122 0.7020 -0.0048
vn -0.9514 0.3078 -0.0026
vn -0.9514 0.3079 -0.0026
vn -0.8182 0.5749 -0.0041
vn -0.6693 -0.3804 0.6382
vn -0.4767 -0.7507 0.4573
vn -0.4767 -0.7508 0.4573
vn 0.1744 -0.9716 -0.1601
vn 0.1744 -0.9716 -0.1602
vn 0.6639 -0.4052 -0.6285
vn 0.6640 -0.4052 -0.6285
vn 0.6641 0.3972 -0.6334
vn 0.6642 0.3972 -0.6333
vn 0.6642 0.3971 -0.6334
vn 0.1752 0.9694 -0.1720
vn 0.1751 0.9694 -0.1720
vn -0.4761 0.7567 0.4480
vn -0.5587 0.6401 0.5273
vn -0.5588 0.6401 0.5273
vn -0.4761 0.7567 0.4481
vn -0.6690 0.3887 0.6335
vn -0.6692 0.3881 0.6337
vn -0.5588 0.6402 0.5273
vn -0.6700 -0.3881 -0.6328
vn -0.4772 -0.7563 -0.4476
vn -0.4772 -0.7563 -0.4475
vn -0.4771 -0.7563 -0.4476
vn 0.1748 -0.9695 0.1718
vn 0.6646 -0.3976 0.6326
vn 0.6649 0.4047 0.6278
vn 0.6650 0.4047 0.6277
vn 0.1754 0.9714 0.1601
vn 0.1754 0.9714 0.1602
vn -0.4767 0.7511 -0.4567
vn -0.6698 0.3809 -0.6374
vn -0.9516 -0.3074 0.0011
vn 0.2679 -0.9634 0.0060
vn 0.9393 -0.3431 0.0027
vn 0.2685 0.9633 -0.0057
vn -0.8182 0.5748 -0.0041
vn -0.9515 0.3077 -0.0026
vt 0.735708 0.256859
vt 0.702573 0.256859
vt 0.702573 0.530969
vt 0.735708 0.530969
vt 0.530969 0.737234
vt 0.530969 0.704100
vt 0.256859 0.704100
vt 0.256859 0.737234
vt 0.064530 0.880518
vt 0.097665 0.880518
vt 0.097665 0.606409
vt 0.064530 0.606409
vt 0.976683 0.570854
vt 0.976683 0.537720
vt 0.702573 0.537720
vt 0.702573 0.570854
vt 0.775394 0.256859
vt 0.742260 0.256859
vt 0.742260 0.530969
vt 0.775394 0.530969
vt 0.460754 0.816608
vt 0.460754 0.783474
vt 0.186644 0.783474
vt 0.186644 0.816608
vt 0.537720 0.906468
vt 0.570855 0.906468
vt 0.570854 0.632358
vt 0.537720 0.632358
vt 0.995000 0.077821
vt 0.995000 0.044687
vt 0.720890 0.044687
vt 0.720890 0.077821
vt 0.796764 0.643043
vt 0.763630 0.643043
vt 0.763630 0.917153
vt 0.796764 0.917153
vt 0.514178 0.776921
vt 0.514178 0.743787
vt 0.240068 0.743787
vt 0.240068 0.776921
vt 0.005000 0.750773
vt 0.038134 0.750773
vt 0.038134 0.476663
vt 0.005000 0.476663
vt 0.378327 0.856295
vt 0.378327 0.823160
vt 0.104217 0.823160
vt 0.104217 0.856295
vt 0.571373 0.631295
vt 0.538239 0.631295
vt 0.538239 0.905405
vt 0.571373 0.905405
vt 0.995000 0.038134
vt 0.995000 0.005000
vt 0.720890 0.005000
vt 0.720890 0.038134
vt 0.763650 0.916377
vt 0.796784 0.916377
vt 0.796784 0.642268
vt 0.763650 0.642268
vt 0.995000 0.117508
vt 0.995000 0.084374
vt 0.720890 0.084374
vt 0.720890 0.117508
vt 0.179854 0.537720
vt 0.156116 0.537720
vt 0.156115 0.811830
vt 0.179854 0.811830
vt 0.610100 0.590357
vt 0.610100 0.366785
vt 0.348687 0.366785
vt 0.348687 0.590357
vt 0.125587 0.746194
vt 0.149325 0.746194
vt 0.149325 0.472084
vt 0.125587 0.472084
vt 0.709744 0.218495
vt 0.709744 0.018952
vt 0.444680 0.018952
vt 0.444680 0.218495
vt 0.132757 0.397290
vt 0.131021 0.399103
vt 0.239554 0.635125
vt 0.241290 0.633311
vt 0.127114 0.403095
vt 0.235648 0.639117
vt 0.757065 0.238542
vt 0.753898 0.243237
vt 0.517877 0.244737
vt 0.521043 0.240042
vt 0.753944 0.250742
vt 0.517922 0.252244
vt 0.253589 0.610415
vt 0.250457 0.613638
vt 0.141925 0.377616
vt 0.145055 0.374393
vt 0.246547 0.617610
vt 0.138016 0.381587
vt 0.136272 0.383320
vt 0.792872 0.614041
vt 0.577407 0.757753
vt 0.580812 0.764098
vt 0.227482 0.715566
vt 0.335900 0.479480
vt 0.334165 0.477751
vt 0.225746 0.713833
vt 0.330257 0.473777
vt 0.221837 0.709862
vt 0.327117 0.470558
vt 0.218699 0.706641
vt 0.298139 0.619987
vt 0.534223 0.618620
vt 0.534268 0.626132
vt 0.298185 0.627494
vt 0.531105 0.630831
vt 0.295020 0.632193
vt 0.335824 0.517288
vt 0.227408 0.753373
vt 0.223497 0.749378
vt 0.331914 0.513297
vt 0.221751 0.747569
vt 0.696668 0.388685
vt 0.484653 0.238542
vt 0.481243 0.244884
vt 0.010643 0.378973
vt 0.008908 0.380789
vt 0.117440 0.616809
vt 0.119176 0.614994
vt 0.005000 0.384778
vt 0.113535 0.620801
vt 0.525049 0.638464
vt 0.521883 0.643160
vt 0.285861 0.644660
vt 0.289026 0.639965
vt 0.521928 0.650669
vt 0.285906 0.652169
vt 0.122317 0.311237
vt 0.119184 0.314460
vt 0.010652 0.078436
vt 0.013783 0.075215
vt 0.115274 0.318429
vt 0.006743 0.082409
vt 0.005000 0.084142
vt 0.434243 0.064530
vt 0.218699 0.208129
vt 0.222105 0.214482
vt 0.068736 0.475917
vt 0.177154 0.239833
vt 0.175417 0.238104
vt 0.066999 0.474186
vt 0.171510 0.234130
vt 0.063090 0.470215
vt 0.168370 0.230910
vt 0.059951 0.466995
vt 0.307296 0.600137
vt 0.543381 0.598777
vt 0.543427 0.606285
vt 0.307342 0.607647
vt 0.540263 0.610986
vt 0.304178 0.612349
vt 0.184708 0.260849
vt 0.076291 0.496934
vt 0.072380 0.492941
vt 0.180798 0.256859
vt 0.070636 0.491129
vt 0.670732 0.388662
vt 0.458704 0.238542
vt 0.455294 0.244886
vt 0.095123 0.032616
vt 0.340060 0.032432
vt 0.340016 0.030327
vt 0.095078 0.030510
vt 0.339995 0.025591
vt 0.095059 0.025775
vt 0.340011 0.021791
vt 0.095072 0.021974
vt 0.046170 0.761372
vt 0.044687 0.516433
vt 0.051922 0.516388
vt 0.053401 0.761328
vt 0.056429 0.516350
vt 0.057914 0.761286
vt 0.370525 0.045243
vt 0.125589 0.045427
vt 0.125587 0.040690
vt 0.370526 0.040506
vt 0.125622 0.038581
vt 0.011253 0.359863
vt 0.011852 0.114923
vt 0.005000 0.114902
vt 0.005000 0.056780
vt 0.249788 0.289392
vt 0.252442 0.288209
vt 0.007654 0.055597
vt 0.258478 0.285544
vt 0.013691 0.052931
vt 0.263357 0.283405
vt 0.018563 0.050793
vt 0.745204 0.901616
vt 0.743787 0.656823
vt 0.751023 0.656781
vt 0.752438 0.901573
vt 0.755562 0.661602
vt 0.756978 0.906390
vt 0.249788 0.259782
vt 0.005000 0.027173
vt 0.011055 0.024506
vt 0.255845 0.257116
vt 0.013789 0.023317
vt 0.319638 0.131635
vt 0.006598 0.005000
vt 0.005000 0.011970
vt 0.414570 0.163028
vt 0.411836 0.161840
vt 0.166751 0.394197
vt 0.169480 0.395384
vt 0.405785 0.159168
vt 0.160695 0.391528
vt 0.723943 0.670519
vt 0.728484 0.675337
vt 0.730031 0.920423
vt 0.725495 0.915608
vt 0.735717 0.675293
vt 0.737263 0.920379
vt 0.183812 0.411267
vt 0.178940 0.409127
vt 0.424029 0.176770
vt 0.428899 0.178912
vt 0.172906 0.406455
vt 0.417991 0.174098
vt 0.415342 0.172906
vt 0.510324 0.290440
vt 0.195802 0.410526
vt 0.197409 0.417498
vt 0.053911 0.015825
vt 0.298846 0.015641
vt 0.298802 0.013536
vt 0.053864 0.013719
vt 0.298783 0.008799
vt 0.053845 0.008983
vt 0.298800 0.005000
vt 0.053859 0.005183
vt 0.783430 0.369084
vt 0.781947 0.124143
vt 0.789181 0.124100
vt 0.790661 0.369040
vt 0.793686 0.124061
vt 0.795171 0.368998
vt 0.401053 0.057455
vt 0.156115 0.057638
vt 0.156115 0.052901
vt 0.401053 0.052717
vt 0.156151 0.050793
vt 0.714929 0.926166
vt 0.715527 0.681226
vt 0.708679 0.681204
s 0
usemtl None
f 1/1/1 2/2/1 6/3/1 5/4/1
f 2/5/2 4/6/2 8/7/2 6/8/2
f 4/9/3 3/10/3 7/11/3 8/12/3
f 3/13/4 1/14/4 5/15/4 7/16/4
f 9/17/1 10/18/1 14/19/1 13/20/1
f 10/21/2 12/22/2 16/23/2 14/24/2
f 12/25/3 11/26/3 15/27/3 16/28/3
f 11/29/4 9/30/4 13/31/4 15/32/4
f 17/33/1 18/34/1 22/35/1 21/36/1
f 18/37/2 20/38/2 24/39/2 22/40/2
f 20/41/3 19/42/3 23/43/3 24/44/3
f 19/45/4 17/46/4 21/47/4 23/48/4
f 25/49/1 26/50/1 30/51/1 29/52/1
f 26/53/2 28/54/2 32/55/2 30/56/2
f 28/57/3 27/58/3 31/59/3 32/60/3
f 27/61/4 25/62/4 29/63/4 31/64/4
f 33/65/1 34/66/1 38/67/1 37/68/1
f 34/69/2 36/70/2 40/71/2 38/72/2
f 36/73/3 35/74/3 39/75/3 40/76/3
f 35/77/4 33/78/4 37/79/4 39/80/4
f 41/81/5 42/82/6 49/83/7 48/84/5
f 42/82/6 43/85/8 50/86/8 49/83/6
f 43/87/8 44/88/9 51/89/10 50/90/11
f 44/88/10 45/91/12 52/92/12 51/89/13
f 45/93/12 46/94/14 53/95/14 52/96/15
f 46/94/14 47/97/16 54/98/17 53/95/18
f 47/97/19 153/99/20 54/98/21
f 154/100/20 177/101/19 155/102/20
f 55/103/22 62/104/22 63/105/23 56/106/23
f 56/106/23 63/105/23 64/107/24 57/108/24
f 57/108/24 64/107/24 65/109/25 58/110/25
f 58/111/26 65/112/25 66/113/27 59/114/27
f 59/114/27 66/113/27 67/115/28 60/116/28
f 60/117/28 67/118/28 68/119/29 61/120/30
f 61/120/29 68/119/29 156/121/31
f 157/122/32 158/123/32 178/124/32
f 69/125/33 70/126/6 77/127/6 76/128/33
f 70/126/7 71/129/11 78/130/11 77/127/6
f 71/131/11 72/132/10 79/133/10 78/134/8
f 72/132/13 73/135/34 80/136/35 79/133/13
f 73/137/34 74/138/14 81/139/36 80/140/34
f 74/138/14 75/141/19 82/142/37 81/139/38
f 75/141/19 159/143/39 82/142/40
f 160/144/41 179/145/16 161/146/41
f 83/147/42 90/148/42 91/149/23 84/150/23
f 84/150/23 91/149/23 92/151/24 85/152/24
f 85/152/24 92/151/24 93/153/25 86/154/25
f 86/155/26 93/156/25 94/157/27 87/158/43
f 87/158/44 94/157/27 95/159/28 88/160/28
f 88/161/28 95/162/28 96/163/29 89/164/29
f 89/164/29 96/163/29 162/165/32
f 163/166/31 164/167/31 180/168/31
f 97/169/45 104/170/45 105/171/46 98/172/47
f 98/172/47 105/171/47 106/173/48 99/174/49
f 99/174/49 106/173/48 107/175/50 100/176/51
f 100/177/51 107/178/52 108/179/53 101/180/53
f 101/180/53 108/179/53 109/181/54 102/182/54
f 102/183/54 109/184/54 110/185/55 103/186/56
f 103/186/56 110/185/57 165/187/58
f 166/188/59 167/189/59 181/190/60
f 111/191/61 118/192/61 119/193/62 112/194/63
f 112/194/63 119/193/63 120/195/64 113/196/64
f 113/196/65 120/195/64 121/197/66 114/198/66
f 114/199/66 121/200/67 122/201/68 115/202/69
f 115/202/68 122/201/70 123/203/71 116/204/71
f 116/205/72 123/206/72 124/207/73 117/208/74
f 117/208/75 124/207/76 168/209/77
f 169/210/78 170/211/78 182/212/79
f 125/213/80 126/214/81 133/215/82 132/216/80
f 126/214/83 127/217/84 134/218/84 133/215/81
f 127/219/84 128/220/85 135/221/85 134/222/84
f 128/220/85 129/223/86 136/224/87 135/221/85
f 129/225/86 130/226/88 137/227/88 136/228/86
f 130/226/89 131/229/90 138/230/90 137/227/88
f 131/229/90 171/231/91 138/230/90
f 172/232/91 183/233/91 173/234/91
f 139/235/92 146/236/92 147/237/47 140/238/47
f 140/238/47 147/237/47 148/239/48 141/240/49
f 141/240/49 148/239/93 149/241/51 142/242/51
f 142/243/51 149/244/94 150/245/53 143/246/53
f 143/246/53 150/245/53 151/247/95 144/248/95
f 144/249/95 151/250/54 152/251/96 145/252/55
f 145/252/55 152/251/56 174/253/97
f 175/254/58 176/255/58 184/256/56
