# Blender 4.0.2
# www.blender.org
mtllib Projectile.mtl
o Cylinder
v 0.062273 0.150339 -0.609970
v 0.150339 0.062273 -0.609970
v 0.150339 -0.062273 -0.609970
v 0.062273 -0.150339 -0.609970
v -0.062273 -0.150339 -0.609970
v -0.150339 -0.062273 -0.609970
v -0.150339 0.062273 -0.609970
v -0.062273 0.150339 -0.609970
v -0.000000 -0.000000 0.430576
v 0.161564 0.036665 -0.388781
v 0.090281 0.037396 0.384679
v 0.142464 0.059011 0.292711
v 0.036665 0.161564 -0.388781
v 0.059011 0.142464 0.292711
v 0.037396 0.090281 0.384679
v 0.161564 -0.036665 -0.388781
v 0.090281 -0.037396 0.384679
v 0.142464 -0.059011 0.292711
v 0.036665 -0.161564 -0.388781
v 0.037396 -0.090281 0.384679
v 0.059011 -0.142464 0.292711
v -0.036665 -0.161564 -0.388781
v -0.037396 -0.090281 0.384679
v -0.059011 -0.142464 0.292711
v -0.161564 -0.036665 -0.388781
v -0.090281 -0.037396 0.384679
v -0.142464 -0.059011 0.292711
v -0.161564 0.036665 -0.388781
v -0.090281 0.037396 0.384679
v -0.142464 0.059011 0.292711
v -0.036665 0.161564 -0.388781
v -0.037396 0.090281 0.384679
v -0.059011 0.142464 0.292711
v 0.036665 0.161564 -0.568133
v 0.161564 0.036665 -0.568133
v 0.161564 -0.036665 -0.568133
v 0.036665 -0.161564 -0.568133
v -0.036665 -0.161564 -0.568133
v -0.161564 -0.036665 -0.568133
v -0.161564 0.036665 -0.568133
v -0.036665 0.161564 -0.568133
v 0.000000 0.000000 0.000000
v 0.161564 0.066922 -0.598389
v 0.161564 -0.066922 -0.598389
v 0.066922 -0.161564 -0.598389
v -0.066922 -0.161564 -0.598389
v -0.161564 -0.066922 -0.598389
v -0.161564 0.066922 -0.598389
v -0.066922 0.161564 -0.598389
v 0.066922 0.161564 -0.598389
v 0.161564 -0.066922 0.158055
v 0.161564 0.066922 0.158055
v -0.066922 -0.161564 0.158055
v 0.066922 -0.161564 0.158055
v -0.161564 0.066922 0.158055
v -0.161564 -0.066922 0.158055
v 0.066922 0.161564 0.158055
v -0.066922 0.161564 0.158055
v 0.161564 0.036665 -0.568133
v 0.161564 -0.036665 -0.568133
v 0.036665 -0.161564 -0.568133
v -0.036665 -0.161564 -0.568133
v -0.161564 -0.036665 -0.568133
v -0.161564 0.036665 -0.568133
v -0.036665 0.161564 -0.568133
v 0.036665 0.161564 -0.568133
v 0.161564 -0.036665 -0.388781
v 0.161564 0.036665 -0.388781
v -0.036665 -0.161564 -0.388781
v 0.036665 -0.161564 -0.388781
v -0.161564 0.036665 -0.388781
v -0.161564 -0.036665 -0.388781
v 0.036665 0.161564 -0.388781
v -0.036665 0.161564 -0.388781
v 0.226279 0.016683 -0.684018
v 0.226279 0.016683 -0.602414
v 0.226279 -0.016683 -0.602414
v 0.226279 -0.016683 -0.684018
v -0.016683 0.226279 -0.684018
v -0.016683 0.226279 -0.602414
v 0.016683 0.226279 -0.602414
v 0.016683 0.226279 -0.684018
v 0.016683 -0.226279 -0.684018
v 0.016683 -0.226279 -0.602414
v -0.016683 -0.226279 -0.602414
v -0.016683 -0.226279 -0.684018
v -0.226279 -0.016683 -0.684018
v -0.226279 -0.016683 -0.602414
v -0.226279 0.016683 -0.602414
v -0.226279 0.016683 -0.684018
v 0.159243 0.065961 0.182217
v 0.065961 0.159243 0.182217
v 0.159243 -0.065961 0.182217
v 0.065961 -0.159243 0.182217
v -0.065961 -0.159243 0.182217
v -0.159243 -0.065961 0.182217
v -0.159243 0.065961 0.182217
v -0.065961 0.159243 0.182217
v 0.151991 0.062957 0.172661
v 0.151991 -0.062957 0.172661
v 0.062957 -0.151991 0.172661
v -0.062957 -0.151991 0.172661
v -0.151991 -0.062957 0.172661
v -0.151991 0.062957 0.172661
v -0.062957 0.151991 0.172661
v 0.062957 0.151991 0.172661
vn -0.0000 1.0000 -0.0000
vn -0.6866 -0.6866 -0.2393
vn 0.7071 0.7071 -0.0000
vn -0.7071 -0.7071 -0.0000
vn -0.7071 0.7071 -0.0000
vn 0.7071 -0.7071 -0.0000
vn 0.6991 0.6991 0.1501
vn 0.6150 0.6150 0.4935
vn 0.3204 0.3204 0.8914
vn 0.9887 -0.0000 0.1501
vn 0.8697 -0.0000 0.4935
vn 0.4532 -0.0000 0.8914
vn 0.6991 -0.6991 0.1501
vn 0.6150 -0.6150 0.4935
vn 0.3204 -0.3204 0.8914
vn -0.0000 -0.9887 0.1501
vn -0.0000 -0.8697 0.4935
vn -0.0000 -0.4532 0.8914
vn -0.6991 -0.6991 0.1501
vn -0.6150 -0.6150 0.4935
vn -0.3204 -0.3204 0.8914
vn -0.9887 -0.0000 0.1501
vn -0.8697 -0.0000 0.4935
vn -0.4532 -0.0000 0.8914
vn -0.6991 0.6991 0.1501
vn -0.6150 0.6150 0.4935
vn -0.3204 0.3204 0.8914
vn -0.0000 0.9887 0.1501
vn -0.0000 0.8697 0.4935
vn -0.0000 0.4532 0.8914
vn 0.5077 0.5077 -0.6960
vn 0.7180 -0.0000 -0.6960
vn 0.5077 -0.5077 -0.6960
vn -0.0000 -0.7180 -0.6960
vn -0.5077 -0.5077 -0.6960
vn -0.7180 -0.0000 -0.6960
vn -0.5077 0.5077 -0.6960
vn -0.0000 0.7180 -0.6960
vn -0.0000 -0.9709 -0.2393
vn 0.9709 -0.0000 -0.2393
vn -0.0000 0.9709 -0.2393
vn -0.9709 -0.0000 -0.2393
vn 0.6866 -0.6866 -0.2393
vn 0.6866 0.6866 -0.2393
vn -0.6866 0.6866 -0.2393
vn 1.0000 -0.0000 -0.0000
vn -0.0000 -1.0000 -0.0000
vn -1.0000 -0.0000 -0.0000
vn 0.2950 0.9555 -0.0000
vn 0.9571 -0.0000 0.2899
vn 0.2950 -0.9555 -0.0000
vn -0.8731 -0.0000 -0.4876
vn -0.9555 0.2950 -0.0000
vn -0.0000 0.9571 0.2899
vn 0.9555 0.2950 -0.0000
vn -0.0000 -0.8731 -0.4876
vn 0.9555 -0.2950 -0.0000
vn -0.0000 -0.9571 0.2899
vn -0.9555 -0.2950 -0.0000
vn -0.0000 0.8731 -0.4876
vn -0.2950 -0.9555 -0.0000
vn -0.9571 -0.0000 0.2899
vn -0.2950 0.9555 -0.0000
vn 0.8731 -0.0000 -0.4876
vn 0.5914 -0.5914 0.5482
vn 0.5633 0.5633 -0.6045
vn 0.7966 -0.0000 -0.6045
vn -0.5914 0.5914 0.5482
vn 0.5633 -0.5633 -0.6045
vn -0.0000 -0.8364 0.5482
vn -0.0000 -0.7966 -0.6045
vn -0.5633 -0.5633 -0.6045
vn -0.8364 -0.0000 0.5482
vn -0.0000 0.7966 -0.6045
vn -0.5633 0.5633 -0.6045
vn 0.5914 0.5914 0.5482
vn -0.0000 0.8364 0.5482
vn -0.7966 -0.0000 -0.6045
vn 0.8364 -0.0000 0.5482
vn -0.5914 -0.5914 0.5482
vt 0.778257 0.514393
vt 0.846743 0.514393
vt 0.750000 0.459030
vt 0.897806 0.397806
vt 1.000000 0.500000
vt 1.000000 0.940438
vt 0.875000 0.940438
vt 0.875000 0.500000
vt 0.096743 0.926045
vt 0.028257 0.926045
vt 0.346743 0.514393
vt 0.346743 0.926045
vt 0.500000 0.500000
vt 0.500000 0.940438
vt 0.375000 0.940438
vt 0.375000 0.500000
vt 0.278257 0.926045
vt 0.250000 0.500000
vt 0.250000 0.940438
vt 0.125000 0.940438
vt 0.125000 0.500000
vt 0.750000 0.500000
vt 0.750000 0.940438
vt 0.625000 0.940438
vt 0.625000 0.500000
vt 0.875898 0.944057
vt 0.999102 0.944057
vt 0.992611 0.970219
vt 0.882389 0.970219
vt 0.972425 1.000000
vt 0.902575 1.000000
vt 0.382268 0.435213
vt 0.287437 0.474493
vt 0.359194 0.359194
vt 0.750898 0.944057
vt 0.874102 0.944057
vt 0.867611 0.970219
vt 0.757389 0.970219
vt 0.847425 1.000000
vt 0.777575 1.000000
vt 0.474493 0.287437
vt 0.435213 0.382268
vt 0.404423 0.250000
vt 0.625898 0.944057
vt 0.749102 0.944057
vt 0.742611 0.970219
vt 0.632389 0.970219
vt 0.722425 1.000000
vt 0.652575 1.000000
vt 0.435213 0.117732
vt 0.474493 0.212563
vt 0.359194 0.140806
vt 0.500898 0.944057
vt 0.624102 0.944057
vt 0.617611 0.970219
vt 0.507389 0.970219
vt 0.597425 1.000000
vt 0.527575 1.000000
vt 0.287437 0.025507
vt 0.382268 0.064787
vt 0.250000 0.095577
vt 0.375898 0.944057
vt 0.499102 0.944057
vt 0.492611 0.970219
vt 0.382389 0.970219
vt 0.472425 1.000000
vt 0.402575 1.000000
vt 0.117732 0.064787
vt 0.212563 0.025507
vt 0.140806 0.140806
vt 0.250898 0.944057
vt 0.374102 0.944057
vt 0.367611 0.970219
vt 0.257389 0.970219
vt 0.347425 1.000000
vt 0.277575 1.000000
vt 0.025507 0.212563
vt 0.064787 0.117732
vt 0.095577 0.250000
vt 0.125898 0.944057
vt 0.249102 0.944057
vt 0.242611 0.970219
vt 0.132389 0.970219
vt 0.222425 1.000000
vt 0.152575 1.000000
vt 0.064787 0.382268
vt 0.025507 0.287437
vt 0.140806 0.359194
vt 0.000898 0.944057
vt 0.124102 0.944057
vt 0.117611 0.970219
vt 0.007389 0.970219
vt 0.097425 1.000000
vt 0.027575 1.000000
vt 0.212563 0.474493
vt 0.117732 0.435213
vt 0.250000 0.404423
vt 0.750000 0.490000
vt 0.919706 0.419706
vt 0.959030 0.250000
vt 0.990000 0.250000
vt 0.897806 0.102194
vt 0.919706 0.080294
vt 0.750000 0.040970
vt 0.750000 0.010000
vt 0.602194 0.102194
vt 0.580294 0.080294
vt 0.540970 0.250000
vt 0.510000 0.250000
vt 0.602194 0.397806
vt 0.580294 0.419706
vt 0.596743 0.514393
vt 0.528257 0.514393
vt 0.278257 0.514393
vt 0.096743 0.514393
vt 0.028257 0.514393
vt 0.000000 0.500000
vt 0.778257 0.926045
vt 0.846743 0.926045
vt 0.875000 0.940438
vt 0.528257 0.926045
vt 0.596743 0.926045
vt 0.625000 0.940438
vt 0.000000 0.940438
s 0
usemtl Material_1
f 35/2/46 36/1/46 44/22/46 43/8/46
f 37/112/47 38/113/47 46/13/47 45/25/47
f 39/11/48 40/114/48 48/18/48 47/16/48
f 41/115/1 34/116/1 50/117/1 49/21/1
f 75/2/46 76/119/46 77/118/46 78/1/46
f 68/119/49 76/119/49 75/2/49 59/2/49
f 67/118/50 77/118/50 76/119/50 68/119/50
f 60/1/51 78/1/51 77/118/51 67/118/51
f 59/2/52 75/2/52 78/1/52 60/1/52
f 79/115/1 80/9/1 81/10/1 82/116/1
f 74/9/53 80/9/53 79/115/53 65/115/53
f 73/10/54 81/10/54 80/9/54 74/9/54
f 66/116/55 82/116/55 81/10/55 73/10/55
f 65/115/56 79/115/56 82/116/56 66/116/56
f 83/112/47 84/122/47 85/121/47 86/113/47
f 70/122/57 84/122/57 83/112/57 61/112/57
f 69/121/58 85/121/58 84/122/58 70/122/58
f 62/113/59 86/113/59 85/121/59 69/121/59
f 61/112/60 83/112/60 86/113/60 62/113/60
f 87/11/48 88/12/48 89/17/48 90/114/48
f 72/12/61 88/12/61 87/11/61 63/11/61
f 71/17/62 89/17/62 88/12/62 72/12/62
f 64/114/63 90/114/63 89/17/63 71/17/63
f 63/11/64 87/11/64 90/114/64 64/114/64
usemtl Material_2
f 1/3/2 2/4/2 42/3/2
f 2/4/31 1/3/31 50/98/31 43/99/31
f 3/100/32 2/4/32 43/99/32 44/101/32
f 4/102/33 3/100/33 44/101/33 45/103/33
f 5/104/34 4/102/34 45/103/34 46/105/34
f 6/106/35 5/104/35 46/105/35 47/107/35
f 7/108/36 6/106/36 47/107/36 48/109/36
f 8/110/37 7/108/37 48/109/37 49/111/37
f 1/3/38 8/110/38 49/111/38 50/98/38
f 8/110/39 1/3/39 42/110/39
f 6/106/40 7/108/40 42/106/40
f 4/102/41 5/104/41 42/102/41
f 2/4/42 3/100/42 42/4/42
f 7/108/43 8/110/43 42/108/43
f 5/104/44 6/106/44 42/104/44
f 3/100/45 4/102/45 42/100/45
f 54/24/65 51/23/65 100/23/65 101/24/65
f 92/27/66 91/26/66 99/26/66 106/27/66
f 91/36/67 93/35/67 100/35/67 99/36/67
f 58/20/68 55/19/68 104/19/68 105/20/68
f 93/45/69 94/44/69 101/44/69 100/45/69
f 53/14/70 54/123/70 101/123/70 102/14/70
f 94/54/71 95/53/71 102/53/71 101/54/71
f 95/63/72 96/62/72 103/62/72 102/63/72
f 55/19/73 56/15/73 103/15/73 104/19/73
f 98/90/74 92/89/74 106/89/74 105/90/74
f 97/81/75 98/80/75 105/80/75 104/81/75
f 52/7/76 57/6/76 106/6/76 99/7/76
f 57/124/77 58/20/77 105/20/77 106/124/77
f 96/72/78 97/71/78 104/71/78 103/72/78
f 51/23/79 52/120/79 99/120/79 100/23/79
f 56/15/80 53/14/80 102/14/80 103/15/80
usemtl Material_3
f 36/1/1 35/2/1 59/2/1 60/1/1
f 50/5/3 57/6/3 52/7/3 43/8/3
f 31/9/1 13/10/1 73/10/1 74/9/1
f 39/11/1 25/12/1 72/12/1 63/11/1
f 46/13/4 53/14/4 56/15/4 47/16/4
f 25/12/1 28/17/1 71/17/1 72/12/1
f 48/18/5 55/19/5 58/20/5 49/21/5
f 44/22/6 51/23/6 54/24/6 45/25/6
f 16/118/46 10/119/46 52/120/46 51/23/46
f 22/121/47 19/122/47 54/123/47 53/14/47
f 28/17/48 25/12/48 56/15/48 55/19/48
f 13/10/1 31/9/1 58/20/1 57/124/1
f 34/116/1 13/10/1 57/124/1 50/117/1
f 10/119/46 35/2/46 43/8/46 52/120/46
f 36/1/46 16/118/46 51/23/46 44/22/46
f 31/9/1 41/115/1 49/21/1 58/20/1
f 19/122/47 37/112/47 45/25/47 54/123/47
f 38/113/47 22/121/47 53/14/47 46/13/47
f 25/12/48 39/11/48 47/16/48 56/15/48
f 40/114/48 28/17/48 55/19/48 48/18/48
f 28/17/1 40/114/1 64/114/1 71/17/1
f 13/10/1 34/116/1 66/116/1 73/10/1
f 38/113/1 37/112/1 61/112/1 62/113/1
f 35/2/1 10/119/1 68/119/1 59/2/1
f 40/114/1 39/11/1 63/11/1 64/114/1
f 16/118/1 36/1/1 60/1/1 67/118/1
f 34/116/1 41/115/1 65/115/1 66/116/1
f 41/115/1 31/9/1 74/9/1 65/115/1
f 10/119/1 16/118/1 67/118/1 68/119/1
f 37/112/1 19/122/1 70/122/1 61/112/1
f 19/122/1 22/121/1 69/121/1 70/122/1
f 22/121/1 38/113/1 62/113/1 69/121/1
usemtl Material_4
f 91/26/7 92/27/7 14/28/7 12/29/7
f 12/29/8 14/28/8 15/30/8 11/31/8
f 11/32/9 15/33/9 9/34/9
f 93/35/10 91/36/10 12/37/10 18/38/10
f 18/38/11 12/37/11 11/39/11 17/40/11
f 17/41/12 11/42/12 9/43/12
f 94/44/13 93/45/13 18/46/13 21/47/13
f 21/47/14 18/46/14 17/48/14 20/49/14
f 20/50/15 17/51/15 9/52/15
f 95/53/16 94/54/16 21/55/16 24/56/16
f 24/56/17 21/55/17 20/57/17 23/58/17
f 23/59/18 20/60/18 9/61/18
f 96/62/19 95/63/19 24/64/19 27/65/19
f 27/65/20 24/64/20 23/66/20 26/67/20
f 26/68/21 23/69/21 9/70/21
f 97/71/22 96/72/22 27/73/22 30/74/22
f 30/74/23 27/73/23 26/75/23 29/76/23
f 29/77/24 26/78/24 9/79/24
f 98/80/25 97/81/25 30/82/25 33/83/25
f 33/83/26 30/82/26 29/84/26 32/85/26
f 32/86/27 29/87/27 9/88/27
f 92/89/28 98/90/28 33/91/28 14/92/28
f 14/92/29 33/91/29 32/93/29 15/94/29
f 15/95/30 32/96/30 9/97/30
